<svg width="30" height="30" viewBox="0 0 30 30" fill="none" xmlns="http://www.w3.org/2000/svg">
<path d="M4.35938 24.6094V26.5781C4.35938 27.7031 9.14063 28.5938 15 28.5938C20.8594 28.5938 25.6406 27.7031 25.6406 26.625V24.6562L4.35938 24.6094Z" fill="#3E4347"/>
<path d="M6 24.6094V26.5781C6 27.6563 10.0313 28.5469 15 28.5469C19.9688 28.5469 24 27.6563 24 26.5781V24.6094H6Z" fill="#62696D"/>
<path d="M25.6406 24.6094H4.35938L6.70313 12.8438H23.2969L25.6406 24.6094Z" fill="#C94747"/>
<path d="M15 26.5781C20.8767 26.5781 25.6406 25.6967 25.6406 24.6094C25.6406 23.5221 20.8767 22.6406 15 22.6406C9.12335 22.6406 4.35938 23.5221 4.35938 24.6094C4.35938 25.6967 9.12335 26.5781 15 26.5781Z" fill="#B23838"/>
<path opacity="0.3" d="M24 24.4688L22.0313 12.8438H7.96875L6 24.5156V24.6562C6 25.7344 10.0313 26.625 15 26.625C19.9688 26.625 24 25.7344 24 24.6562V24.4688Z" fill="#FFC7CE"/>
<path d="M15 14.8125C19.5822 14.8125 23.2969 13.9311 23.2969 12.8437C23.2969 11.7564 19.5822 10.875 15 10.875C10.4178 10.875 6.70312 11.7564 6.70312 12.8437C6.70312 13.9311 10.4178 14.8125 15 14.8125Z" fill="#ED4C5C"/>
<path opacity="0.5" d="M8.0625 13.0312C8.0625 12.7031 8.34375 12.4687 8.625 12.3281C8.90625 12.1406 9.1875 12.0469 9.46875 11.9062C10.0781 11.7187 10.6875 11.5781 11.2969 11.4375C12.5156 11.2031 13.7812 11.1563 15 11.1094C16.2187 11.1094 17.4844 11.2031 18.7031 11.4375C19.3125 11.5312 19.9219 11.6719 20.5312 11.9062C20.8125 12 21.0937 12.1406 21.375 12.3281C21.6094 12.4687 21.9375 12.7031 21.9375 13.0312C21.8906 12.7031 21.5625 12.5625 21.3281 12.4219C21.0469 12.2812 20.7656 12.1875 20.4844 12.1406C19.875 12 19.3125 11.9063 18.7031 11.8125C17.4844 11.6719 16.2656 11.625 15.0469 11.625C13.8281 11.625 12.6094 11.6719 11.3906 11.8125C10.7812 11.8594 10.1719 12 9.60937 12.1406C9.32812 12.2344 9 12.2812 8.76562 12.4219C8.4375 12.5625 8.10938 12.75 8.0625 13.0312Z" fill="#C94747"/>
<path opacity="0.3" d="M15 25.125C18.4949 25.125 21.3281 22.3128 21.3281 18.8438C21.3281 15.3747 18.4949 12.5625 15 12.5625C11.5051 12.5625 8.67188 15.3747 8.67188 18.8438C8.67188 22.3128 11.5051 25.125 15 25.125Z" fill="#FFC7CE"/>
<path d="M20.9531 18.8438L17.2969 17.9063L19.3125 14.5312L15.9375 16.5938L15 12.8906L14.0625 16.5938L10.6875 14.5312L12.7031 17.9063L9.04688 18.8438L12.7031 19.7813L10.6875 23.1563L14.0625 21.1406L15 24.7969L15.9375 21.1406L19.3125 23.1563L17.2969 19.7813L20.9531 18.8438Z" fill="#FFE6EA"/>
<path d="M26.6719 3.75L22.9688 9.32812L28.9687 6.04687L26.6719 3.75ZM3.32812 3.75L7.03125 9.32812L1.03125 6.04687L3.32812 3.75ZM0 10.8281L5.625 12.7031L0 13.5V10.8281ZM30 10.8281L24.375 12.7031L30 13.5V10.8281ZM8.0625 1.875L11.8594 8.53125L11.1094 1.40625L8.0625 1.875ZM21.9375 1.875L18.1406 8.53125L18.8906 1.40625L21.9375 1.875Z" fill="#F15744"/>
</svg>
